<?xml version="1.0" standalone="no"?>
<!DOCTYPE svg PUBLIC "-//W3C//DTD SVG 20010904//EN"
 "http://www.w3.org/TR/2001/REC-SVG-20010904/DTD/svg10.dtd">
<svg version="1.0" xmlns="http://www.w3.org/2000/svg"
 width="1024.000000pt" height="1024.000000pt" viewBox="0 0 1024.000000 1024.000000"
 preserveAspectRatio="xMidYMid meet">

<g transform="translate(0.000000,1024.000000) scale(0.100000,-0.100000)"
fill="#ec6639" stroke="none">
<path d="M6216 10089 c-151 -17 -313 -64 -451 -130 -382 -182 -572 -508 -500
-854 30 -143 140 -320 266 -427 62 -52 192 -141 262 -178 l47 -25 0 -148 c0
-188 17 -227 97 -227 35 0 50 10 295 191 l118 86 127 6 c366 16 682 149 894
374 189 201 252 454 175 699 -38 117 -89 196 -196 304 -178 178 -405 281 -710
325 -111 16 -309 18 -424 4z"/>
<path d="M4326 8851 c-50 -8 -74 -39 -88 -117 l-12 -59 -60 -24 c-34 -13 -82
-36 -109 -52 -26 -16 -52 -29 -57 -29 -6 0 -37 21 -70 47 -40 31 -70 46 -90
46 -51 0 -160 -105 -160 -155 0 -9 22 -47 50 -83 l50 -66 -34 -67 c-19 -37
-42 -92 -51 -123 -15 -53 -18 -57 -53 -63 -20 -3 -51 -6 -69 -6 -19 0 -43 -10
-59 -23 -23 -20 -28 -34 -32 -84 -8 -114 29 -163 122 -163 58 0 83 -15 90 -54
4 -19 25 -71 47 -116 l40 -80 -45 -51 c-26 -28 -49 -63 -53 -77 -8 -33 19 -82
74 -132 62 -58 84 -57 166 6 31 24 61 44 66 44 5 0 30 -12 57 -27 26 -15 75
-37 107 -48 l60 -22 18 -74 c26 -101 56 -129 139 -129 106 0 122 15 150 135
l16 70 71 26 c39 14 92 38 117 53 l46 27 56 -46 c76 -62 97 -69 140 -49 51 24
114 102 114 140 0 30 -38 93 -73 123 -24 19 -22 32 17 103 19 35 42 88 51 119
l16 56 57 6 c110 10 132 34 132 148 0 91 -20 114 -106 124 -33 3 -65 9 -72 13
-7 4 -25 44 -41 88 -15 45 -38 98 -50 118 l-23 37 35 42 c51 63 69 102 58 129
-5 13 -36 49 -70 82 -73 69 -80 69 -172 1 -34 -25 -65 -45 -70 -45 -5 0 -28
12 -52 27 -23 15 -73 39 -112 54 l-70 27 -15 59 c-18 70 -34 100 -57 107 -37
10 -99 13 -137 7z m222 -542 c83 -40 146 -105 186 -189 28 -58 31 -75 31 -155
0 -77 -4 -98 -27 -147 -37 -80 -107 -152 -187 -191 -61 -30 -73 -32 -166 -32
-93 0 -105 2 -167 33 -137 67 -211 187 -212 342 -1 75 3 93 31 152 40 85 100
150 169 184 77 37 108 44 198 39 63 -3 91 -9 144 -36z"/>
<path d="M5797 7759 c-99 -24 -167 -86 -194 -178 -72 -248 218 -435 409 -263
62 56 83 104 83 192 0 83 -15 121 -69 178 -59 63 -149 91 -229 71z"/>
<path d="M4116 6869 c-64 -10 -124 -53 -156 -109 -21 -38 -25 -61 -28 -154 -6
-148 8 -205 61 -261 45 -46 117 -75 189 -75 l38 0 0 -97 c-1 -478 -122 -844
-371 -1119 -89 -98 -165 -164 -379 -328 -533 -408 -812 -805 -945 -1341 -61
-247 -67 -316 -72 -868 -5 -538 0 -645 42 -855 154 -759 745 -1350 1507 -1504
l113 -23 1005 0 c918 0 1013 2 1101 18 327 60 620 193 869 394 83 67 242 228
309 313 175 220 301 487 359 760 40 185 44 269 40 890 -4 508 -7 610 -22 699
-66 394 -215 734 -454 1033 -138 174 -290 314 -539 500 -379 282 -561 518
-657 851 -45 155 -76 392 -76 583 l0 91 60 6 c132 12 212 87 226 214 9 83 -1
211 -19 255 -18 43 -65 90 -114 114 -36 18 -77 19 -1038 20 -550 1 -1022 -2
-1049 -7z m1126 -1525 c50 -17 109 -67 134 -115 8 -17 18 -51 21 -77 21 -182
-167 -308 -341 -229 -90 41 -145 140 -132 234 21 153 167 239 318 187z m-517
-638 c105 -48 184 -152 201 -264 14 -91 -29 -205 -104 -278 -123 -121 -339
-119 -462 5 -72 73 -95 128 -95 236 0 73 4 98 23 136 46 94 130 165 227 190
50 14 153 1 210 -25z m1119 -516 c33 -5 93 -25 134 -45 206 -98 315 -336 257
-560 -23 -85 -62 -151 -130 -220 -237 -238 -638 -172 -785 129 -74 150 -75
294 -3 438 96 191 306 294 527 258z m-1799 -495 c246 -16 496 -121 836 -350
242 -163 307 -201 429 -253 255 -108 556 -139 827 -83 189 39 330 99 663 281
102 56 189 102 194 103 10 2 59 -139 83 -238 14 -59 17 -153 20 -625 3 -371 1
-587 -7 -652 -57 -496 -381 -881 -839 -997 -163 -41 -209 -42 -1181 -38 -927
3 -936 4 -1024 26 -394 98 -702 382 -826 763 -61 188 -63 210 -67 777 -5 552
0 655 38 793 80 290 302 468 619 498 41 3 93 5 115 4 22 -2 76 -6 120 -9z"/>
<path d="M4560 2744 c-94 -41 -144 -149 -118 -253 15 -58 87 -135 143 -150 54
-15 85 -14 136 4 181 64 192 326 17 400 -47 19 -132 19 -178 -1z"/>
<path d="M5340 2180 c-271 -33 -395 -371 -210 -573 72 -79 148 -112 260 -112
71 0 94 4 142 27 230 108 284 384 109 559 -82 82 -178 113 -301 99z"/>
<path d="M4500 1524 c-19 -8 -47 -27 -63 -42 -28 -27 -58 -107 -52 -139 2 -10
6 -30 9 -45 14 -64 102 -128 177 -128 83 0 165 64 185 144 34 138 -124 267
-256 210z"/>
</g>
</svg>
