<svg width="180" height="180" xmlns="http://www.w3.org/2000/svg">

 <g>
  <title>Layer 1</title>
  <g>
   <g fill="#000000" transform="translate(0 1020) scale(0.1 -0.1)">
    <path d="m845.05907,10186.92137c-50,-8 -74,-39 -88,-117l-12,-59l-60,-24c-34,-13 -82,-36 -109,-52c-26,-16 -52,-29 -57,-29c-6,0 -37,21 -70,47c-40,31 -70,46 -90,46c-51,0 -160,-105 -160,-155c0,-9 22,-47 50,-83l50,-66l-34,-67c-19,-37 -42,-92 -51,-123c-15,-53 -18,-57 -53,-63c-20,-3 -51,-6 -69,-6c-19,0 -43,-10 -59,-23c-23,-20 -28,-34 -32,-84c-8,-114 29,-163 122,-163c58,0 83,-15 90,-54c4,-19 25,-71 47,-116l40,-80l-45,-51c-26,-28 -49,-63 -53,-77c-8,-33 19,-82 74,-132c62,-58 84,-57 166,6c31,24 61,44 66,44c5,0 30,-12 57,-27c26,-15 75,-37 107,-48l60,-22l18,-74c26,-101 56,-129 139,-129c106,0 122,15 150,135l16,70l71,26c39,14 92,38 117,53l46,27l56,-46c76,-62 97,-69 140,-49c51,24 114,102 114,140c0,30 -38,93 -73,123c-24,19 -22,32 17,103c19,35 42,88 51,119l16,56l57,6c110,10 132,34 132,148c0,91 -20,114 -106,124c-33,3 -65,9 -72,13c-7,4 -25,44 -41,88c-15,45 -38,98 -50,118l-23,37l35,42c51,63 69,102 58,129c-5,13 -36,49 -70,82c-73,69 -80,69 -172,1c-34,-25 -65,-45 -70,-45c-5,0 -28,12 -52,27c-23,15 -73,39 -112,54l-70,27l-15,59c-18,70 -34,100 -57,107c-37,10 -99,13 -137,7zm222,-542c83,-40 146,-105 186,-189c28,-58 31,-75 31,-155c0,-77 -4,-98 -27,-147c-37,-80 -107,-152 -187,-191c-61,-30 -73,-32 -166,-32c-93,0 -105,2 -167,33c-137,67 -211,187 -212,342c-1,75 3,93 31,152c40,85 100,150 169,184c77,37 108,44 198,39c63,-3 91,-9 144,-36z"/>
   </g>
  </g>
 </g>
</svg>